<svg width="376" height="377" viewBox="0 0 376 377" fill="none" xmlns="http://www.w3.org/2000/svg">
<g filter="url(#filter0_f_16_17)">
<path d="M208.512 193.936C189.62 222.989 183.237 256.564 188 288.343C218.984 279.797 247.082 260.332 265.974 231.279C284.867 202.225 291.25 168.65 286.486 136.871C255.502 145.417 227.404 164.882 208.512 193.936Z" fill="url(#paint0_linear_16_17)"/>
<path d="M167.488 193.936C186.38 222.989 192.763 256.564 188 288.343C157.016 279.797 128.918 260.332 110.026 231.279C91.1334 202.225 84.7504 168.634 89.5136 136.855C120.498 145.401 148.596 164.866 167.488 193.92V193.936Z" fill="url(#paint1_linear_16_17)"/>
<path d="M150.039 188.083C150.039 226.485 164.393 261.518 188 288.167C211.607 261.518 225.961 226.485 225.961 188.083C225.961 149.682 211.607 114.648 188 88C164.393 114.648 150.039 149.682 150.039 188.083Z" fill="url(#paint2_linear_16_17)"/>
</g>
<path d="M208.512 193.936C189.62 222.989 183.237 256.564 188 288.343C218.984 279.797 247.082 260.332 265.974 231.279C284.867 202.225 291.25 168.65 286.486 136.871C255.502 145.417 227.404 164.882 208.512 193.936Z" fill="url(#paint3_linear_16_17)"/>
<path d="M167.488 193.936C186.38 222.989 192.763 256.564 188 288.343C157.016 279.797 128.918 260.332 110.026 231.279C91.1334 202.225 84.7504 168.634 89.5136 136.855C120.498 145.401 148.596 164.866 167.488 193.92V193.936Z" fill="url(#paint4_linear_16_17)"/>
<path d="M150.039 188.083C150.039 226.485 164.393 261.518 188 288.167C211.607 261.518 225.961 226.485 225.961 188.083C225.961 149.682 211.607 114.648 188 88C164.393 114.648 150.039 149.682 150.039 188.083Z" fill="url(#paint5_linear_16_17)"/>
<g filter="url(#filter1_b_16_17)">
<path d="M227.174 312.133H150.545C142.927 312.133 136.172 309.023 133.792 304.42L107.041 252.679C103.288 245.424 111.784 237.955 123.794 237.955H253.925C265.935 237.955 274.432 245.424 270.679 252.679L243.927 304.42C241.548 309.023 234.792 312.133 227.174 312.133Z" fill="url(#paint6_linear_16_17)"/>
<path d="M227.174 313.133H150.545C146.606 313.133 142.868 312.33 139.786 310.911C136.714 309.497 134.226 307.437 132.904 304.88M227.174 313.133L132.904 304.88M227.174 313.133C231.113 313.133 234.851 312.33 237.933 310.911C241.005 309.497 243.493 307.437 244.816 304.88L271.567 253.139C272.615 251.111 272.822 249.029 272.3 247.061C271.782 245.109 270.566 243.333 268.873 241.845C265.497 238.878 260.118 236.955 253.925 236.955H123.794C117.602 236.955 112.223 238.878 108.846 241.845C107.154 243.333 105.938 245.109 105.42 247.061C104.898 249.029 105.104 251.111 106.152 253.138M227.174 313.133L106.152 253.138M132.904 304.88L106.153 253.139M132.904 304.88L106.153 253.139M106.153 253.139L106.152 253.138H106.152M106.153 253.139L106.152 253.138" stroke="url(#paint7_linear_16_17)" stroke-width="2"/>
</g>
<path d="M140.52 355.133V338.333H142.92V353.045H152.016V355.133H140.52ZM159.718 355.277C158.438 355.277 157.302 354.997 156.31 354.437C155.318 353.877 154.534 353.109 153.958 352.133C153.382 351.141 153.094 350.021 153.094 348.773C153.094 347.509 153.382 346.389 153.958 345.413C154.534 344.437 155.318 343.677 156.31 343.133C157.302 342.573 158.438 342.293 159.718 342.293C160.982 342.293 162.11 342.573 163.102 343.133C164.11 343.677 164.894 344.437 165.454 345.413C166.03 346.373 166.318 347.493 166.318 348.773C166.318 350.037 166.03 351.157 165.454 352.133C164.894 353.109 164.11 353.877 163.102 354.437C162.11 354.997 160.982 355.277 159.718 355.277ZM159.718 353.261C160.534 353.261 161.262 353.077 161.902 352.709C162.558 352.341 163.07 351.821 163.438 351.149C163.806 350.461 163.99 349.669 163.99 348.773C163.99 347.861 163.806 347.077 163.438 346.421C163.07 345.749 162.558 345.229 161.902 344.861C161.262 344.493 160.534 344.309 159.718 344.309C158.902 344.309 158.174 344.493 157.534 344.861C156.894 345.229 156.382 345.749 155.998 346.421C155.614 347.077 155.422 347.861 155.422 348.773C155.422 349.669 155.614 350.461 155.998 351.149C156.382 351.821 156.894 352.341 157.534 352.709C158.174 353.077 158.902 353.261 159.718 353.261ZM177.283 355.133V352.445L177.163 351.941V347.357C177.163 346.381 176.875 345.629 176.299 345.101C175.739 344.557 174.891 344.285 173.755 344.285C173.003 344.285 172.267 344.413 171.547 344.669C170.827 344.909 170.219 345.237 169.723 345.653L168.763 343.925C169.419 343.397 170.203 342.997 171.115 342.725C172.043 342.437 173.011 342.293 174.019 342.293C175.763 342.293 177.107 342.717 178.051 343.565C178.995 344.413 179.467 345.709 179.467 347.453V355.133H177.283ZM173.107 355.277C172.163 355.277 171.331 355.117 170.611 354.797C169.907 354.477 169.363 354.037 168.979 353.477C168.595 352.901 168.403 352.253 168.403 351.533C168.403 350.845 168.563 350.221 168.883 349.661C169.219 349.101 169.755 348.653 170.491 348.317C171.243 347.981 172.251 347.813 173.515 347.813H177.547V349.469H173.611C172.459 349.469 171.683 349.661 171.283 350.045C170.883 350.429 170.683 350.893 170.683 351.437C170.683 352.061 170.931 352.565 171.427 352.949C171.923 353.317 172.611 353.501 173.491 353.501C174.355 353.501 175.107 353.309 175.747 352.925C176.403 352.541 176.875 351.981 177.163 351.245L177.619 352.829C177.315 353.581 176.779 354.181 176.011 354.629C175.243 355.061 174.275 355.277 173.107 355.277ZM188.987 355.277C187.755 355.277 186.651 355.005 185.675 354.461C184.715 353.917 183.955 353.157 183.395 352.181C182.835 351.205 182.555 350.069 182.555 348.773C182.555 347.477 182.835 346.349 183.395 345.389C183.955 344.413 184.715 343.653 185.675 343.109C186.651 342.565 187.755 342.293 188.987 342.293C190.059 342.293 191.027 342.533 191.891 343.013C192.755 343.493 193.443 344.213 193.955 345.173C194.483 346.133 194.747 347.333 194.747 348.773C194.747 350.213 194.491 351.413 193.979 352.373C193.483 353.333 192.803 354.061 191.939 354.557C191.075 355.037 190.091 355.277 188.987 355.277ZM189.179 353.261C189.979 353.261 190.699 353.077 191.339 352.709C191.995 352.341 192.507 351.821 192.875 351.149C193.259 350.461 193.451 349.669 193.451 348.773C193.451 347.861 193.259 347.077 192.875 346.421C192.507 345.749 191.995 345.229 191.339 344.861C190.699 344.493 189.979 344.309 189.179 344.309C188.363 344.309 187.635 344.493 186.995 344.861C186.355 345.229 185.843 345.749 185.459 346.421C185.075 347.077 184.883 347.861 184.883 348.773C184.883 349.669 185.075 350.461 185.459 351.149C185.843 351.821 186.355 352.341 186.995 352.709C187.635 353.077 188.363 353.261 189.179 353.261ZM193.523 355.133V351.701L193.667 348.749L193.427 345.797V337.325H195.731V355.133H193.523ZM200.09 355.133V342.413H202.394V355.133H200.09ZM201.242 339.965C200.794 339.965 200.418 339.821 200.114 339.533C199.826 339.245 199.682 338.893 199.682 338.477C199.682 338.045 199.826 337.685 200.114 337.397C200.418 337.109 200.794 336.965 201.242 336.965C201.69 336.965 202.058 337.109 202.346 337.397C202.65 337.669 202.802 338.013 202.802 338.429C202.802 338.861 202.658 339.229 202.37 339.533C202.082 339.821 201.706 339.965 201.242 339.965ZM213.585 342.293C214.625 342.293 215.537 342.493 216.321 342.893C217.121 343.293 217.745 343.901 218.193 344.717C218.641 345.533 218.865 346.565 218.865 347.813V355.133H216.561V348.077C216.561 346.845 216.257 345.917 215.649 345.293C215.057 344.669 214.217 344.357 213.129 344.357C212.313 344.357 211.601 344.517 210.993 344.837C210.385 345.157 209.913 345.629 209.577 346.253C209.257 346.877 209.097 347.653 209.097 348.581V355.133H206.793V342.413H209.001V345.845L208.641 344.933C209.057 344.101 209.697 343.453 210.561 342.989C211.425 342.525 212.433 342.293 213.585 342.293ZM228.697 359.933C227.529 359.933 226.393 359.765 225.289 359.429C224.201 359.109 223.313 358.645 222.625 358.037L223.729 356.261C224.321 356.773 225.049 357.173 225.913 357.461C226.777 357.765 227.681 357.917 228.625 357.917C230.129 357.917 231.233 357.565 231.937 356.861C232.641 356.157 232.993 355.085 232.993 353.645V350.957L233.233 348.437L233.113 345.893V342.413H235.297V353.405C235.297 355.645 234.737 357.293 233.617 358.349C232.497 359.405 230.857 359.933 228.697 359.933ZM228.409 354.605C227.177 354.605 226.073 354.349 225.097 353.837C224.137 353.309 223.369 352.581 222.793 351.653C222.233 350.725 221.953 349.653 221.953 348.437C221.953 347.205 222.233 346.133 222.793 345.221C223.369 344.293 224.137 343.573 225.097 343.061C226.073 342.549 227.177 342.293 228.409 342.293C229.497 342.293 230.489 342.517 231.385 342.965C232.281 343.397 232.993 344.069 233.521 344.981C234.065 345.893 234.337 347.045 234.337 348.437C234.337 349.813 234.065 350.957 233.521 351.869C232.993 352.781 232.281 353.469 231.385 353.933C230.489 354.381 229.497 354.605 228.409 354.605ZM228.673 352.589C229.521 352.589 230.273 352.413 230.929 352.061C231.585 351.709 232.097 351.221 232.465 350.597C232.849 349.973 233.041 349.253 233.041 348.437C233.041 347.621 232.849 346.901 232.465 346.277C232.097 345.653 231.585 345.173 230.929 344.837C230.273 344.485 229.521 344.309 228.673 344.309C227.825 344.309 227.065 344.485 226.393 344.837C225.737 345.173 225.217 345.653 224.833 346.277C224.465 346.901 224.281 347.621 224.281 348.437C224.281 349.253 224.465 349.973 224.833 350.597C225.217 351.221 225.737 351.709 226.393 352.061C227.065 352.413 227.825 352.589 228.673 352.589Z" fill="#198E9B"/>
<defs>
<filter id="filter0_f_16_17" x="0" y="0" width="376" height="376.343" filterUnits="userSpaceOnUse" color-interpolation-filters="sRGB">
<feFlood flood-opacity="0" result="BackgroundImageFix"/>
<feBlend mode="normal" in="SourceGraphic" in2="BackgroundImageFix" result="shape"/>
<feGaussianBlur stdDeviation="44" result="effect1_foregroundBlur_16_17"/>
</filter>
<filter id="filter1_b_16_17" x="54.144" y="185.955" width="269.431" height="178.177" filterUnits="userSpaceOnUse" color-interpolation-filters="sRGB">
<feFlood flood-opacity="0" result="BackgroundImageFix"/>
<feGaussianBlur in="BackgroundImageFix" stdDeviation="25"/>
<feComposite in2="SourceAlpha" operator="in" result="effect1_backgroundBlur_16_17"/>
<feBlend mode="normal" in="SourceGraphic" in2="effect1_backgroundBlur_16_17" result="shape"/>
</filter>
<linearGradient id="paint0_linear_16_17" x1="284.337" y1="145.113" x2="193.128" y2="275.888" gradientUnits="userSpaceOnUse">
<stop stop-color="#21D898"/>
<stop offset="1" stop-color="#198E9B"/>
</linearGradient>
<linearGradient id="paint1_linear_16_17" x1="99.7776" y1="159.944" x2="186.002" y2="276.465" gradientUnits="userSpaceOnUse">
<stop stop-color="#21D898"/>
<stop offset="1" stop-color="#198E9B"/>
</linearGradient>
<linearGradient id="paint2_linear_16_17" x1="189.075" y1="119.314" x2="186.59" y2="278.226" gradientUnits="userSpaceOnUse">
<stop stop-color="#85FFB7"/>
<stop offset="1" stop-color="#30FF80"/>
</linearGradient>
<linearGradient id="paint3_linear_16_17" x1="284.337" y1="145.113" x2="193.128" y2="275.888" gradientUnits="userSpaceOnUse">
<stop stop-color="#21D898"/>
<stop offset="1" stop-color="#198E9B"/>
</linearGradient>
<linearGradient id="paint4_linear_16_17" x1="99.7776" y1="159.944" x2="186.002" y2="276.465" gradientUnits="userSpaceOnUse">
<stop stop-color="#21D898"/>
<stop offset="1" stop-color="#198E9B"/>
</linearGradient>
<linearGradient id="paint5_linear_16_17" x1="189.075" y1="119.314" x2="186.59" y2="278.226" gradientUnits="userSpaceOnUse">
<stop stop-color="#85FFB7"/>
<stop offset="1" stop-color="#30FF80"/>
</linearGradient>
<linearGradient id="paint6_linear_16_17" x1="115.484" y1="307.945" x2="164.615" y2="198.371" gradientUnits="userSpaceOnUse">
<stop stop-color="#30FF80" stop-opacity="0.09"/>
<stop offset="1" stop-color="#198E9B" stop-opacity="0.42"/>
</linearGradient>
<linearGradient id="paint7_linear_16_17" x1="117.822" y1="243.789" x2="162.147" y2="349.489" gradientUnits="userSpaceOnUse">
<stop stop-color="white"/>
<stop offset="1" stop-color="white" stop-opacity="0"/>
</linearGradient>
</defs>
</svg>
