<svg width="926" height="930" viewBox="0 0 926 930" fill="none" xmlns="http://www.w3.org/2000/svg">
<g filter="url(#filter0_f_3_21)">
<path d="M539.652 485.024C468.848 593.909 444.926 719.741 462.778 838.842C578.901 806.813 684.205 733.862 755.009 624.977C825.813 516.091 849.735 390.26 831.884 271.158C715.76 303.187 610.456 376.138 539.652 485.024Z" fill="url(#paint0_linear_3_21)"/>
<path d="M385.904 485.024C456.708 593.909 480.63 719.741 462.779 838.842C346.655 806.813 241.351 733.862 170.547 624.976C99.7431 516.091 75.8213 390.199 93.6725 271.098C209.796 303.127 315.1 376.078 385.904 484.963V485.024Z" fill="url(#paint1_linear_3_21)"/>
<path d="M320.51 463.091C320.51 607.01 374.304 738.309 462.779 838.181C551.254 738.309 605.048 607.01 605.048 463.091C605.048 319.172 551.254 187.872 462.779 88C374.304 187.872 320.51 319.172 320.51 463.091Z" fill="url(#paint2_linear_3_21)"/>
</g>
<path d="M539.652 485.024C468.848 593.909 444.926 719.741 462.778 838.842C578.901 806.813 684.205 733.862 755.009 624.977C825.813 516.091 849.735 390.26 831.884 271.158C715.76 303.187 610.456 376.138 539.652 485.024Z" fill="url(#paint3_linear_3_21)"/>
<path d="M385.904 485.024C456.708 593.909 480.63 719.741 462.779 838.842C346.655 806.813 241.351 733.862 170.547 624.976C99.7431 516.091 75.8213 390.199 93.6725 271.098C209.796 303.127 315.1 376.078 385.904 484.963V485.024Z" fill="url(#paint4_linear_3_21)"/>
<path d="M320.51 463.091C320.51 607.01 374.304 738.309 462.779 838.181C551.254 738.309 605.048 607.01 605.048 463.091C605.048 319.172 551.254 187.872 462.779 88C374.304 187.872 320.51 319.172 320.51 463.091Z" fill="url(#paint5_linear_3_21)"/>
<g filter="url(#filter1_b_3_21)">
<path d="M609.593 928H322.407C293.856 928 268.537 916.347 259.619 899.096L159.361 705.181C145.295 677.99 177.138 650 222.149 650H709.851C754.862 650 786.705 677.99 772.639 705.181L672.381 899.096C663.463 916.347 638.144 928 609.593 928Z" fill="url(#paint6_linear_3_21)"/>
<path d="M322.407 929H609.593C623.999 929 637.611 926.061 648.768 920.925C659.914 915.794 668.678 908.437 673.27 899.555L773.527 705.641C777.154 698.629 777.835 691.527 776.059 684.832C774.287 678.152 770.088 671.942 764.059 666.643C752.01 656.053 732.544 649 709.851 649H222.149C199.456 649 179.99 656.053 167.941 666.643C161.912 671.942 157.713 678.152 155.941 684.832C154.165 691.527 154.846 698.629 158.473 705.64C158.473 705.64 158.473 705.64 158.473 705.641L258.73 899.555C263.322 908.437 272.086 915.794 283.232 920.925C294.389 926.061 308.001 929 322.407 929Z" stroke="url(#paint7_linear_3_21)" stroke-width="2"/>
</g>
<defs>
<filter id="filter0_f_3_21" x="0" y="0" width="925.556" height="926.842" filterUnits="userSpaceOnUse" color-interpolation-filters="sRGB">
<feFlood flood-opacity="0" result="BackgroundImageFix"/>
<feBlend mode="normal" in="SourceGraphic" in2="BackgroundImageFix" result="shape"/>
<feGaussianBlur stdDeviation="44" result="effect1_foregroundBlur_3_21"/>
</filter>
<filter id="filter1_b_3_21" x="104" y="598" width="724" height="382" filterUnits="userSpaceOnUse" color-interpolation-filters="sRGB">
<feFlood flood-opacity="0" result="BackgroundImageFix"/>
<feGaussianBlur in="BackgroundImageFix" stdDeviation="25"/>
<feComposite in2="SourceAlpha" operator="in" result="effect1_backgroundBlur_3_21"/>
<feBlend mode="normal" in="SourceGraphic" in2="effect1_backgroundBlur_3_21" result="shape"/>
</filter>
<linearGradient id="paint0_linear_3_21" x1="823.83" y1="302.045" x2="481.997" y2="792.164" gradientUnits="userSpaceOnUse">
<stop stop-color="#21D898"/>
<stop offset="1" stop-color="#198E9B"/>
</linearGradient>
<linearGradient id="paint1_linear_3_21" x1="132.14" y1="357.63" x2="455.29" y2="794.325" gradientUnits="userSpaceOnUse">
<stop stop-color="#21D898"/>
<stop offset="1" stop-color="#198E9B"/>
</linearGradient>
<linearGradient id="paint2_linear_3_21" x1="466.806" y1="205.359" x2="457.494" y2="800.925" gradientUnits="userSpaceOnUse">
<stop stop-color="#85FFB7"/>
<stop offset="1" stop-color="#30FF80"/>
</linearGradient>
<linearGradient id="paint3_linear_3_21" x1="823.83" y1="302.045" x2="481.997" y2="792.164" gradientUnits="userSpaceOnUse">
<stop stop-color="#21D898"/>
<stop offset="1" stop-color="#198E9B"/>
</linearGradient>
<linearGradient id="paint4_linear_3_21" x1="132.14" y1="357.63" x2="455.29" y2="794.325" gradientUnits="userSpaceOnUse">
<stop stop-color="#21D898"/>
<stop offset="1" stop-color="#198E9B"/>
</linearGradient>
<linearGradient id="paint5_linear_3_21" x1="466.806" y1="205.359" x2="457.494" y2="800.925" gradientUnits="userSpaceOnUse">
<stop stop-color="#85FFB7"/>
<stop offset="1" stop-color="#30FF80"/>
</linearGradient>
<linearGradient id="paint6_linear_3_21" x1="191.003" y1="912.305" x2="375.136" y2="501.647" gradientUnits="userSpaceOnUse">
<stop stop-color="#30FF80" stop-opacity="0.09"/>
<stop offset="1" stop-color="#198E9B" stop-opacity="0.42"/>
</linearGradient>
<linearGradient id="paint7_linear_3_21" x1="199.765" y1="671.864" x2="365.888" y2="1068" gradientUnits="userSpaceOnUse">
<stop stop-color="white"/>
<stop offset="1" stop-color="white" stop-opacity="0"/>
</linearGradient>
</defs>
</svg>
